<svg width="80" height="22" viewBox="0 0 80 22" fill="none" xmlns="http://www.w3.org/2000/svg">
<path fill-rule="evenodd" clip-rule="evenodd" d="M65 1C66.1046 1 67 1.89543 67 3C67 4.10457 66.1046 5 65 5C64.1684 5 63.4553 4.49242 63.1537 3.77015C62.7985 3.91823 62.4088 4 62 4C60.3431 4 59 2.65685 59 1C59 0.649365 59.0602 0.312779 59.1707 0H55.7439C55.9098 0.469168 56 0.974047 56 1.5C56 3.98528 53.9853 6 51.5 6C49.0147 6 47 3.98528 47 1.5C47 0.974047 47.0902 0.469168 47.2561 0H44.3178C45.9345 1.07492 47 2.91303 47 5C47 7.12597 45.8943 8.99368 44.2266 10.0595C44.4787 10.0203 44.737 10 45 10C47.7614 10 50 12.2386 50 15C50 17.7614 47.7614 20 45 20C43.8454 20 42.7823 19.6087 41.9359 18.9514C41.7833 20.0741 41.3646 21.1122 40.7453 22H51.5351C51.1948 21.4117 51 20.7286 51 20C51 17.7909 52.7909 16 55 16C55.7422 16 56.4372 16.2021 57.0329 16.5544C57.2481 15.1088 58.4946 14 60 14C61.6569 14 63 15.3431 63 17C63 18.6569 61.6569 20 60 20C59.648 20 59.3102 19.9394 58.9964 19.828C58.9988 19.885 59 19.9424 59 20C59 20.7286 58.8052 21.4117 58.4649 22H65.0854C65.0301 21.8436 65 21.6753 65 21.5C65 20.6716 65.6716 20 66.5 20C67.3284 20 68 20.6716 68 21.5C68 21.6753 67.9699 21.8436 67.9146 22H80V0H70.9146C70.7087 0.582596 70.1531 1 69.5 1C68.8469 1 68.2913 0.582596 68.0854 0H64.8293C64.9398 0.312779 65 0.649365 65 1ZM29.2547 22C28.4638 20.8662 28 19.4872 28 18C26.9239 18 25.9045 17.7572 24.9936 17.3233C24.9234 19.0897 24.2804 20.7088 23.2454 22H29.2547ZM35 11C37.0992 11 38.9827 11.9241 40.2657 13.3876C40.6135 12.3661 41.2826 11.4932 42.1527 10.8894C41.7796 10.962 41.3943 11 41 11C37.6863 11 35 8.31371 35 5C35 2.91303 36.0655 1.07492 37.6822 0H34.6586C34.8797 0.625558 35 1.29873 35 2C35 3.68542 34.3051 5.20852 33.1861 6.29842C34.3132 7.54095 35 9.19027 35 11ZM23.8937 5.15214C23.9192 5.1933 23.9451 5.23413 23.9716 5.27463C23.9536 5.28731 23.9356 5.30008 23.9178 5.31293C23.9103 5.25917 23.9022 5.20557 23.8937 5.15214ZM23 2C23 2.18266 23.0082 2.36342 23.0241 2.54192C22.5104 1.56729 21.8128 0.704607 20.9775 0H23.3414C23.1203 0.625558 23 1.29873 23 2ZM10.7546 22C9.93702 20.9801 9.36408 19.7555 9.12483 18.4154C7.11331 20.6181 4.21803 22 1 22C0.66291 22 0.329362 21.9848 0 21.9552V22H1H10.7546ZM10.0225 0C9.19666 0.696631 8.50543 1.54778 7.99337 2.50886C6.09246 0.941447 3.65617 0 1 0H10.0225ZM1 0C0.66291 0 0.329362 0.0151626 0 0.044843V0H1ZM54.5 15C56.433 15 58 13.433 58 11.5C58 9.567 56.433 8 54.5 8C52.567 8 51 9.567 51 11.5C51 13.433 52.567 15 54.5 15ZM61.5 11C62.8807 11 64 9.88071 64 8.5C64 7.11929 62.8807 6 61.5 6C60.1193 6 59 7.11929 59 8.5C59 9.88071 60.1193 11 61.5 11ZM68 13C68 14.1046 67.1046 15 66 15C64.8954 15 64 14.1046 64 13C64 11.8954 64.8954 11 66 11C67.1046 11 68 11.8954 68 13ZM70 8C70 9.10457 69.1046 10 68 10C66.8954 10 66 9.10457 66 8C66 6.89543 66.8954 6 68 6C69.1046 6 70 6.89543 70 8ZM72 11.5C72 12.3284 71.3284 13 70.5 13C69.6716 13 69 12.3284 69 11.5C69 10.6716 69.6716 10 70.5 10C71.3284 10 72 10.6716 72 11.5ZM73.5 7C74.3284 7 75 6.32843 75 5.5C75 4.67157 74.3284 4 73.5 4C72.6716 4 72 4.67157 72 5.5C72 6.32843 72.6716 7 73.5 7ZM78 16C78.5523 16 79 15.5523 79 15C79 14.4477 78.5523 14 78 14C77.4477 14 77 14.4477 77 15C77 15.5523 77.4477 16 78 16ZM71 4C71 4.55228 70.5523 5 70 5C69.4477 5 69 4.55228 69 4C69 3.44772 69.4477 3 70 3C70.5523 3 71 3.44772 71 4ZM74.5 10.5C75.0523 10.5 75.5 10.0523 75.5 9.5C75.5 8.94771 75.0523 8.5 74.5 8.5C73.9477 8.5 73.5 8.94771 73.5 9.5C73.5 10.0523 73.9477 10.5 74.5 10.5ZM73 20C73.5523 20 74 19.5523 74 19C74 18.4477 73.5523 18 73 18C72.4477 18 72 18.4477 72 19C72 19.5523 72.4477 20 73 20ZM77 3C77 3.55228 76.5523 4 76 4C75.4477 4 75 3.55228 75 3C75 2.44772 75.4477 2 76 2C76.5523 2 77 2.44772 77 3ZM71 17.5C71 18.3284 70.3284 19 69.5 19C68.6716 19 68 18.3284 68 17.5C68 16.6716 68.6716 16 69.5 16C70.3284 16 71 16.6716 71 17.5Z" fill="#ECECE9"/>
</svg>
