<svg width="80" height="22" viewBox="0 0 80 22" fill="none" xmlns="http://www.w3.org/2000/svg">
<path fill-rule="evenodd" clip-rule="evenodd" d="M65 1C66.1046 1 67 1.89543 67 3C67 4.10457 66.1046 5 65 5C64.1684 5 63.4553 4.49242 63.1537 3.77015C62.7985 3.91823 62.4088 4 62 4C60.3431 4 59 2.65685 59 1C59 0.649365 59.0602 0.312779 59.1707 0H55.7439C55.9098 0.469168 56 0.974047 56 1.5C56 3.98528 53.9853 6 51.5 6C49.0147 6 47 3.98528 47 1.5C47 0.974047 47.0902 0.469168 47.2561 0H44.3178C45.9345 1.07492 47 2.91303 47 5C47 7.12597 45.8943 8.99368 44.2266 10.0595C44.4787 10.0203 44.737 10 45 10C47.7614 10 50 12.2386 50 15C50 17.7614 47.7614 20 45 20C43.8454 20 42.7823 19.6087 41.9359 18.9514C41.7833 20.0741 41.3646 21.1122 40.7453 22H51.5351C51.1948 21.4117 51 20.7286 51 20C51 17.7909 52.7909 16 55 16C55.7422 16 56.4372 16.2021 57.0329 16.5544C57.2481 15.1088 58.4946 14 60 14C61.6569 14 63 15.3431 63 17C63 18.6569 61.6569 20 60 20C59.648 20 59.3102 19.9394 58.9964 19.828C58.9988 19.885 59 19.9424 59 20C59 20.7286 58.8052 21.4117 58.4649 22H80V0H70.9146C70.7087 0.582596 70.1531 1 69.5 1C68.8469 1 68.2913 0.582596 68.0854 0H64.8293C64.9398 0.312779 65 0.649365 65 1ZM29.2547 22C28.4638 20.8662 28 19.4872 28 18C26.9239 18 25.9045 17.7572 24.9936 17.3233C24.9234 19.0897 24.2804 20.7088 23.2454 22H29.2547ZM35 11C37.0992 11 38.9827 11.9241 40.2657 13.3876C40.6135 12.3661 41.2826 11.4932 42.1527 10.8894C41.7796 10.962 41.3943 11 41 11C37.6863 11 35 8.31371 35 5C35 2.91303 36.0655 1.07492 37.6822 0H34.6586C34.8797 0.625558 35 1.29873 35 2C35 3.68542 34.3051 5.20852 33.1861 6.29842C34.3132 7.54095 35 9.19027 35 11ZM23.8937 5.15214C23.9192 5.1933 23.9451 5.23413 23.9716 5.27463C23.9536 5.28731 23.9356 5.30008 23.9178 5.31293C23.9103 5.25917 23.9022 5.20557 23.8937 5.15214ZM23.0241 2.54192C23.0082 2.36342 23 2.18266 23 2C23 1.29873 23.1203 0.625558 23.3414 0H20.9775C21.8128 0.704607 22.5104 1.56729 23.0241 2.54192ZM9.12483 18.4154C9.36408 19.7555 9.93702 20.9801 10.7546 22H1C4.21803 22 7.11331 20.6181 9.12483 18.4154ZM1 22H0V21.9552C0.329362 21.9848 0.66291 22 1 22ZM7.99337 2.50886C8.50543 1.54778 9.19666 0.696631 10.0225 0H1H0V0.044843C0.329362 0.0151626 0.66291 0 1 0C3.65617 0 6.09246 0.941447 7.99337 2.50886ZM58 11.5C58 13.433 56.433 15 54.5 15C52.567 15 51 13.433 51 11.5C51 9.567 52.567 8 54.5 8C56.433 8 58 9.567 58 11.5ZM64 8.5C64 9.88071 62.8807 11 61.5 11C60.1193 11 59 9.88071 59 8.5C59 7.11929 60.1193 6 61.5 6C62.8807 6 64 7.11929 64 8.5ZM66 15C67.1046 15 68 14.1046 68 13C68 11.8954 67.1046 11 66 11C64.8954 11 64 11.8954 64 13C64 14.1046 64.8954 15 66 15ZM68 10C69.1046 10 70 9.10457 70 8C70 6.89543 69.1046 6 68 6C66.8954 6 66 6.89543 66 8C66 9.10457 66.8954 10 68 10ZM76 14.5C76 15.3284 75.3284 16 74.5 16C73.6716 16 73 15.3284 73 14.5C73 13.6716 73.6716 13 74.5 13C75.3284 13 76 13.6716 76 14.5ZM73.5 7C74.3284 7 75 6.32843 75 5.5C75 4.67157 74.3284 4 73.5 4C72.6716 4 72 4.67157 72 5.5C72 6.32843 72.6716 7 73.5 7ZM68 19.5C68 20.3284 67.3284 21 66.5 21C65.6716 21 65 20.3284 65 19.5C65 18.6716 65.6716 18 66.5 18C67.3284 18 68 18.6716 68 19.5Z" fill="#ECECE9"/>
</svg>
