 <svg width="910" height="1251" viewBox="0 0 910 1251" fill="none" xmlns="http://www.w3.org/2000/svg">
<path d="M172.71 798.28C172.71 803.584 174.817 808.671 178.568 812.422C182.319 816.173 187.406 818.28 192.71 818.28H503.55C508.854 818.28 513.941 816.173 517.692 812.422C521.443 808.671 523.55 803.584 523.55 798.28C523.55 792.976 521.443 787.889 517.692 784.138C513.941 780.387 508.854 778.28 503.55 778.28H192.71C187.406 778.28 182.319 780.387 178.568 784.138C174.817 787.889 172.71 792.976 172.71 798.28Z" fill="white" stroke="#DDAB3C" stroke-width="5" stroke-miterlimit="10"/>
<path d="M283.89 850.5H400.89C404.645 850.5 408.247 849.008 410.903 846.353C413.558 843.697 415.05 840.095 415.05 836.34V818.28H269.74V836.35C269.743 840.102 271.234 843.7 273.887 846.353C276.54 849.006 280.138 850.497 283.89 850.5Z" fill="white" stroke="#DDAB3C" stroke-width="5" stroke-miterlimit="10"/>
<path d="M357.72 1095.58H327.11L327.11 850.5H357.72V1095.58Z" fill="white" stroke="#DDAB3C" stroke-width="5" stroke-miterlimit="10"/>
<path d="M359.75 1158.8H325.06C318.3 1158.8 312.82 1153.32 312.82 1146.56V1107.82C312.82 1101.06 318.3 1095.58 325.06 1095.58H359.75C366.51 1095.58 371.99 1101.06 371.99 1107.82V1146.56C371.99 1153.32 366.51 1158.8 359.75 1158.8Z" fill="white" stroke="#DDAB3C" stroke-width="5" stroke-miterlimit="10"/>
<path d="M206.94 1215.74C206.94 1200.64 212.939 1186.16 223.617 1175.48C234.296 1164.8 248.779 1158.8 263.88 1158.8H420.94C436.041 1158.8 450.524 1164.8 461.203 1175.48C471.881 1186.16 477.88 1200.64 477.88 1215.74" stroke="#DDAB3C" stroke-width="5" stroke-miterlimit="10"/>
<path d="M205.91 1245.32C193.312 1245.32 183.1 1235.11 183.1 1222.51C183.1 1209.91 193.312 1199.7 205.91 1199.7C218.508 1199.7 228.72 1209.91 228.72 1222.51C228.72 1235.11 218.508 1245.32 205.91 1245.32Z" fill="white" stroke="#DDAB3C" stroke-width="5" stroke-miterlimit="10"/>
<path d="M479.32 1245.32C466.722 1245.32 456.51 1235.11 456.51 1222.51C456.51 1209.91 466.722 1199.7 479.32 1199.7C491.918 1199.7 502.13 1209.91 502.13 1222.51C502.13 1235.11 491.918 1245.32 479.32 1245.32Z" fill="white" stroke="#DDAB3C" stroke-width="5" stroke-miterlimit="10"/>
<path d="M341.59 1245.32C328.992 1245.32 318.78 1235.11 318.78 1222.51C318.78 1209.91 328.992 1199.7 341.59 1199.7C354.188 1199.7 364.4 1209.91 364.4 1222.51C364.4 1235.11 354.188 1245.32 341.59 1245.32Z" fill="white" stroke="#DDAB3C" stroke-width="5" stroke-miterlimit="10"/>
<path d="M638.94 1126.39C649.12 1150.54 658.39 1170.34 665.46 1183.33C670.72 1192.99 679.88 1249.33 728.04 1226.63C729.74 1225.83 709.04 1220.49 702.51 1173.88C700.223 1157.54 698.127 1141.78 696.22 1126.6C677.38 1127.88 653.48 1127.1 638.94 1126.39Z" fill="#FFCFC9"/>
<path d="M649.35 1249.33C649.35 1249.33 629.96 1182.23 655.89 1171.99C664.17 1168.72 674.21 1176.99 676.89 1205.23C679.24 1229.92 715.31 1233.75 718.71 1217.79C718.71 1217.79 762.93 1226.79 762.93 1249.33H649.35Z" fill="#294C75"/>
<path d="M625.85 1125.63C625.85 1125.63 679.41 1129.46 707.58 1125.45C707.58 1125.45 744.98 735.3 739.39 695.16C732.66 646.87 571.9 604.07 488.79 590.5L473.48 521.16C473.48 521.16 361.04 519.16 297.55 519.16C297.55 519.16 229.55 640.16 236.55 720.16C243.55 800.16 390.17 782 585.98 782C585.98 782 526.28 902.51 625.85 1125.63Z" fill="#1E7B9F"/>
<path d="M462.69 1128.29C477.587 1129.61 492.576 1129.49 507.45 1127.93C502.45 1147.38 497.83 1165.93 494.16 1182.5C491.79 1193.14 507.02 1207.5 511.36 1217.95L511.02 1217.79C491.02 1214.6 464.19 1233.54 466.95 1203.98C469.71 1174.42 465.47 1167.05 462.69 1128.29Z" fill="#FFCFC9"/>
<path d="M467.55 1182.23C460.67 1182.23 449.49 1194.67 450.6 1214.59C451.238 1226.48 453.701 1238.19 457.9 1249.33H535.23C533.87 1227.88 511.02 1217.79 511.02 1217.79C491.02 1214.6 465.19 1233.54 467.95 1203.98L467.55 1182.23Z" fill="#294C75"/>
<path d="M407.01 628C407.01 628 577.44 658.8 596.8 709.85C616.16 760.9 525.85 1125.6 525.85 1125.6C473.49 1133.6 446.63 1125.6 446.63 1125.6C392.17 875.84 455.98 793 455.98 793C329.07 787.61 248.98 799.65 236.54 720.22C232.57 695 260.93 598.53 407.01 628Z" fill="#1E7B9F"/>
<path d="M410.01 628C410.01 628 580.44 658.8 599.8 709.85C619.16 760.9 528.85 1125.6 528.85 1125.6" stroke="#1F3147" stroke-width="5" stroke-miterlimit="10"/>
<path d="M447.48 464.58C437.35 441.68 482.32 411.58 528.34 423.58C528.34 423.58 512.82 238.9 476.45 215.63C441.15 193.05 432.65 299.4 431.45 325.37C431.49 325.37 424.96 425.84 447.48 464.58Z" fill="#DBEAF0"/>
<path d="M451.44 470.15C429.15 450.15 475.24 409.45 528.34 423.58C561.56 428.74 690.7 456.27 702.84 462.58C714.7 467.87 748.95 485.1 753.31 490.33C758.81 496.93 759.65 514.39 759.31 516.69C758.97 518.99 754.46 530.96 754.46 530.96C754.46 530.96 745.81 530.07 746.91 520.66C748.23 509.47 738.27 506 731.61 503C728.83 501.76 721.61 502.27 720.34 506.48C719.07 510.69 729.6 515.79 731.34 518.84C733.93 523.46 730.93 528.63 730.87 528.74C730.81 528.85 714.81 520.12 711.72 518.48C708.88 516.97 695.53 501.39 689.87 487.66C689.83 487.65 490.57 505.31 451.44 470.15Z" fill="#FFC0B7"/>
<path d="M476.17 116.26C479.92 107.15 495.46 60.01 470.28 39.65C445.1 19.29 411.89 -1.59999 371.71 1.65001C331.53 4.90001 320.33 58.4 297.56 67C274.79 75.6 247.01 65.4 220.76 89C194.51 112.6 221.76 149.75 195.01 169.58C168.26 189.41 142.48 164.32 115.68 199.36C84.96 239.54 129.83 285.97 86.22 289.97C38 294.39 8.90996 376.03 29.61 430.22H280.79C441.17 405.44 476.17 116.26 476.17 116.26Z" fill="#DDAB3C"/>
<path d="M458.86 36.83C434.38 15.14 405.92 0.71 365.66 2.68C325.4 4.65 309.92 49.5 286.88 57.54C263.84 65.58 234.79 54.23 207.76 77.54C180.73 100.85 206.76 142.26 179.31 161.69C151.86 181.12 126.99 154.58 99.03 189.61C66.96 229.78 110.25 275.61 66.53 278.27C18.19 281.22 -13.41 342.34 10.87 411.64" stroke="#DDAB3C" stroke-width="5" stroke-miterlimit="10"/>
<path d="M474.24 520.46C474.24 520.46 488.48 404.4 496.01 398.32C512.92 384.66 526.37 365.07 519.32 338.02C515.32 322.75 483.17 221.53 476.32 215.1C469.47 208.67 424.52 192.6 424.52 192.6H297.52C283.06 197.42 237.66 213.75 226.81 230.37C173.81 311.53 156.86 441.71 156.86 441.71H222.76C222.76 441.71 254.48 370.52 265.76 369.71C277.04 368.9 298.17 519.46 298.17 519.46C298.17 519.46 370.42 539.51 474.24 520.46Z" fill="#DBEAF0"/>
<path d="M475.24 520.46C475.24 520.46 489.48 404.4 497.01 398.32C513.92 384.66 528.37 364.07 521.32 337.02" stroke="white" stroke-width="5" stroke-miterlimit="10"/>
<path d="M385.17 206.7C385.17 206.7 443.67 318.32 429.17 530.46" stroke="white" stroke-width="5" stroke-miterlimit="10"/>
<path d="M392.16 301.2C387.902 301.2 384.45 297.748 384.45 293.49C384.45 289.232 387.902 285.78 392.16 285.78C396.418 285.78 399.87 289.232 399.87 293.49C399.87 297.748 396.418 301.2 392.16 301.2Z" stroke="white" stroke-width="5" stroke-miterlimit="10"/>
<path d="M402.73 357.74C398.472 357.74 395.02 354.288 395.02 350.03C395.02 345.772 398.472 342.32 402.73 342.32C406.988 342.32 410.44 345.772 410.44 350.03C410.44 354.288 406.988 357.74 402.73 357.74Z" stroke="white" stroke-width="5" stroke-miterlimit="10"/>
<path d="M408.38 414.48C404.122 414.48 400.67 411.028 400.67 406.77C400.67 402.512 404.122 399.06 408.38 399.06C412.638 399.06 416.09 402.512 416.09 406.77C416.09 411.028 412.638 414.48 408.38 414.48Z" stroke="white" stroke-width="5" stroke-miterlimit="10"/>
<path d="M164.17 473.36C196.8 507.67 407.76 461.79 407.76 461.79C407.76 461.79 418.76 479.17 431.64 479.79C444.52 480.41 456.71 475.86 463.25 481.38C469.79 486.9 476.39 496.51 481.51 497.5C487.589 498.743 493.828 499.007 499.99 498.28C497.802 492.247 495.285 486.338 492.45 480.58C496.34 483.73 501.17 489.51 504 491.92C505.178 493.016 506.69 493.684 508.294 493.816C509.897 493.948 511.498 493.538 512.84 492.65C512.84 492.65 504.39 479.75 501.06 476.3C497.73 472.85 487.52 464.19 481.86 462.22C475.17 459.36 436 440.17 416.45 436.99C395.72 433.63 227.84 422.33 227.84 422.33C167.12 422.29 136.77 444.56 164.17 473.36Z" fill="#FFCFC9"/>
<path d="M493.68 496.27C493.68 496.27 481.56 475.2 477.5 472.97C470.35 469.03 461.02 463.85 461.02 463.85" stroke="#FFB0AF" stroke-width="3" stroke-miterlimit="10" stroke-linecap="round"/>
<path d="M485.3 495.89C485.3 495.89 474.59 478.56 470.53 476.33C463.38 472.39 454.05 467.21 454.05 467.21" stroke="#FFB0AF" stroke-width="3" stroke-miterlimit="10" stroke-linecap="round"/>
<path d="M373.09 114.69C373.09 114.69 355.42 170.1 297.56 192.6C297.56 192.6 378.72 227.96 424.56 192.6V116.29L373.09 114.69Z" fill="#FFCFC9"/>
<path d="M412.84 199.81C416.972 197.816 420.886 195.4 424.52 192.6V116.29L373.09 114.69C373.09 114.69 372.59 116.25 371.49 118.96C366.24 142.35 380.44 190.88 412.84 199.81Z" fill="#FFC0B7"/>
<path d="M374.44 123.22C374.97 141.44 409.26 184.3 428.01 184.3C443.55 184.3 472.56 137.43 476.22 116.3C479.97 94.56 476.17 56 445.17 55.46C426.01 55.13 416.17 73.13 410.42 94C403.42 119.19 381.94 113.54 381.94 113.54C381.94 113.54 375.79 99.54 367.22 106.54C358.65 113.54 374.44 123.22 374.44 123.22Z" fill="#FFCFC9"/>
<path d="M872.55 1249.33L822.55 560.5L772.55 1250.78" stroke="#DDAB3C" stroke-width="5" stroke-miterlimit="10"/>
<path d="M876.94 560.5H218.61C214.497 560.5 210.553 558.868 207.643 555.961C204.733 553.055 203.095 549.113 203.09 545C203.09 540.884 204.725 536.936 207.636 534.026C210.546 531.115 214.494 529.48 218.61 529.48H876.94V560.5Z" fill="white"/>
<path d="M876.94 560.5H218.61C214.497 560.5 210.553 558.868 207.643 555.961C204.733 553.055 203.095 549.113 203.09 545V545C203.09 540.884 204.725 536.936 207.636 534.026C210.546 531.115 214.494 529.48 218.61 529.48H876.94" stroke="#DDAB3C" stroke-width="5" stroke-miterlimit="10"/>
<path d="M616.17 295.32H881.84C884.767 295.322 887.651 296.031 890.246 297.387C892.84 298.742 895.07 300.703 896.744 303.104C898.419 305.505 899.489 308.275 899.865 311.178C900.24 314.081 899.909 317.032 898.9 319.78L831.9 501.78H520.8L590.1 313.51C592.062 308.175 595.614 303.57 600.276 300.318C604.938 297.065 610.485 295.32 616.17 295.32V295.32Z" stroke="black" stroke-miterlimit="10"/>
<path d="M613.78 295.32H880.43C892.76 295.32 901.32 308.39 897.06 320.72L839.06 489.13C837.903 492.75 835.641 495.917 832.592 498.186C829.543 500.455 825.86 501.712 822.06 501.78H523.78L588.35 314.22C592.27 302.86 602.42 295.32 613.78 295.32Z" fill="white"/>
<path d="M624.78 307.93H891.43C894.285 307.929 897.098 308.619 899.63 309.939C902.161 311.26 904.336 313.173 905.969 315.515C907.603 317.857 908.645 320.559 909.009 323.391C909.373 326.223 909.048 329.101 908.06 331.78L850.06 489.9C848.784 493.383 846.469 496.39 843.429 498.514C840.389 500.639 836.769 501.779 833.06 501.78H534.78L599.35 325.67C601.265 320.467 604.73 315.976 609.277 312.804C613.825 309.632 619.235 307.93 624.78 307.93Z" fill="#DCE4EA"/>
<path d="M832.52 501.78H323.66C316.565 501.78 309.761 504.598 304.745 509.615C299.728 514.631 296.91 521.435 296.91 528.53H805.77C812.865 528.53 819.668 525.712 824.685 520.695C829.702 515.679 832.52 508.875 832.52 501.78Z" fill="white" stroke="#4A5568" stroke-width="6" stroke-miterlimit="10"/>
<path d="M616.17 295.32H881.84C884.767 295.322 887.651 296.031 890.246 297.387C892.84 298.742 895.07 300.703 896.744 303.104C898.419 305.505 899.489 308.275 899.865 311.178C900.24 314.081 899.909 317.032 898.9 319.78L831.9 501.78H520.8L590.1 313.51C592.062 308.175 595.614 303.57 600.276 300.318C604.938 297.065 610.485 295.32 616.17 295.32V295.32Z" stroke="#4A5568" stroke-width="5" stroke-miterlimit="10"/>
<path d="M713.962 427.462C707.669 420.472 709.557 408.512 718.18 400.747C726.803 392.983 738.896 392.355 745.189 399.345C751.482 406.334 749.594 418.295 740.971 426.059C732.348 433.823 720.255 434.451 713.962 427.462Z" fill="#DDAB3C"/>
<path d="M707.85 421.095C701.557 414.106 703.445 402.145 712.068 394.381C720.691 386.617 732.784 385.989 739.077 392.978C745.37 399.968 743.482 411.928 734.859 419.693C726.236 427.457 714.143 428.085 707.85 421.095Z" stroke="#4A5568" stroke-width="5" stroke-miterlimit="10"/>
</svg>
